<svg xmlns="http://www.w3.org/2000/svg" viewBox="0 0 1500 1180" font-family="'Segoe UI', Helvetica, Arial, sans-serif">
  <defs>
    <marker id="arrowB" viewBox="0 0 10 10" refX="9" refY="5" markerWidth="7" markerHeight="7" orient="auto-start-reverse"><path d="M0,0 L10,5 L0,10 z" fill="#1a1a1a"/></marker>
    <marker id="arrowG" viewBox="0 0 10 10" refX="9" refY="5" markerWidth="7" markerHeight="7" orient="auto-start-reverse"><path d="M0,0 L10,5 L0,10 z" fill="#8a8a8a"/></marker>
  </defs>
  <style>
    .bg { fill:#ffffff; }
    .box { fill:#fafafa; stroke:#1a1a1a; stroke-width:1.5; rx:6; }
    .container { fill:#ffffff; stroke:#b5b5b5; stroke-width:1.3; stroke-dasharray:4,3; rx:10; }
    .callout { fill:#ffffff; stroke:#8a8a8a; stroke-width:1.3; stroke-dasharray:4,3; rx:6; }
    .lbl { font-size:14px; font-weight:600; fill:#141414; text-anchor:middle; }
    .lblSm { font-size:11.5px; font-weight:600; fill:#141414; text-anchor:middle; }
    .path { font-family:'Consolas','SF Mono',Menlo,monospace; font-size:10px; fill:#6b6b6b; text-anchor:middle; }
    .noteG { font-family:'Consolas','SF Mono',Menlo,monospace; font-size:9.8px; fill:#5a5a5a; text-anchor:middle; }
    .noteGL { font-family:'Consolas','SF Mono',Menlo,monospace; font-size:9.8px; fill:#5a5a5a; text-anchor:start; }
    .arrow { stroke:#1a1a1a; stroke-width:1.6; fill:none; marker-end:url(#arrowB); }
    .arrowDashed { stroke:#8a8a8a; stroke-width:1.5; fill:none; stroke-dasharray:6,4; marker-end:url(#arrowG); }
    .edgeLbl { font-size:10px; fill:#5a5a5a; text-anchor:middle; }
    .title { font-size:23px; font-weight:700; fill:#111111; text-anchor:middle; }
    .subtitle { font-size:12.5px; fill:#5a5a5a; text-anchor:middle; }
    .containerLbl { font-size:11.5px; font-weight:700; fill:#8a8a8a; letter-spacing:0.5px; }
    .stepNum { font-size:11px; font-weight:700; fill:#ffffff; text-anchor:middle; }
    .legendTxt { font-size:10.5px; fill:#333333; }
    .legendTitle { font-size:11px; font-weight:700; fill:#333333; }
  </style>

  <rect class="bg" x="0" y="0" width="1500" height="1180"/>
  <text class="title" x="750" y="34">Working Context Assembly</text>
  <text class="subtitle" x="750" y="53">obsidian/memory_engine/working_context_builder.py — WorkingContextBuilder.build()</text>

  <!-- input -->
  <rect class="box" x="480" y="78" width="540" height="60"/>
  <text class="lbl" x="750" y="102">allocated RankedCandidate[]</text>
  <text class="path" x="750" y="118">post this path's own AcceptanceStage (topic-diversified) + DeterministicSlotAllocator</text>

  <!-- builder container -->
  <rect class="container" x="330" y="168" width="840" height="470"/>
  <text class="containerLbl" x="350" y="160">WorkingContextBuilder.build() — working_context_builder.py:143</text>
  <line class="arrow" x1="750" y1="138" x2="750" y2="166"/>

  <!-- step 1 -->
  <circle cx="380" cy="212" r="15" fill="#1a1a1a"/><text class="stepNum" x="380" y="217">1</text>
  <rect class="box" x="410" y="192" width="720" height="46"/>
  <text class="lblSm" x="770" y="220">Re-sort candidates (never trusts caller order)</text>

  <!-- step 2 -->
  <circle cx="380" cy="278" r="15" fill="#1a1a1a"/><text class="stepNum" x="380" y="283">2</text>
  <rect class="box" x="410" y="252" width="720" height="60"/>
  <text class="lblSm" x="770" y="274">Assign each candidate a primary concept</text>
  <text class="noteG" x="770" y="290">highest-activation_score entry in supporting_concepts (ties → ascending str(concept_id));</text>
  <text class="noteG" x="770" y="303">no ontology evidence → falls into a shared GENERAL bucket</text>

  <!-- step 3 -->
  <circle cx="380" cy="350" r="15" fill="#1a1a1a"/><text class="stepNum" x="380" y="355">3</text>
  <rect class="box" x="410" y="324" width="720" height="52"/>
  <text class="lblSm" x="770" y="346">One WorkingContext per distinct primary concept (ContextKind.TOPIC)</text>
  <text class="noteG" x="770" y="362">plus one GENERAL context — never zero contexts, even for empty input</text>

  <!-- step 4 -->
  <circle cx="380" cy="416" r="15" fill="#1a1a1a"/><text class="stepNum" x="380" y="421">4</text>
  <rect class="box" x="410" y="390" width="720" height="60"/>
  <text class="lblSm" x="770" y="411">Split into RoleBuckets via resolve_role(knowledge_object)</text>
  <text class="noteG" x="770" y="427">retrieval_models.py:1661 — metadata["role"] override, else a fixed</text>
  <text class="noteG" x="770" y="440">MemoryType → MemoryRole table (DECISION · GOAL · TASK · BELIEF · RESEARCH · OPEN_QUESTION · REFERENCE)</text>

  <!-- step 5 -->
  <circle cx="380" cy="492" r="15" fill="#1a1a1a"/><text class="stepNum" x="380" y="497">5</text>
  <rect class="box" x="410" y="466" width="720" height="60"/>
  <text class="lblSm" x="770" y="487">WorkingContextState.from_buckets() — deterministic summary</text>
  <text class="noteG" x="770" y="503">status (ACTIVE/DECIDED/REFERENCE) · current_goal (top GOAL) · recent_decisions</text>
  <text class="noteG" x="770" y="516">(newest valid_from first) · pending_tasks / open_questions (top-K, rank order)</text>

  <line class="arrow" x1="770" y1="238" x2="770" y2="250"/>
  <line class="arrow" x1="770" y1="312" x2="770" y2="322"/>
  <line class="arrow" x1="770" y1="376" x2="770" y2="388"/>
  <line class="arrow" x1="770" y1="450" x2="770" y2="464"/>

  <!-- topic title resolution note -->
  <rect class="callout" x="410" y="558" width="720" height="60"/>
  <text class="lblSm" x="770" y="580">query_working_context() only: _resolve_topic_titles()</text>
  <text class="noteG" x="770" y="596">engine.py:1464 — resolves a TOPIC context's UUID-keyed title to the Concept's human-readable .label</text>

  <!-- output -->
  <rect class="box" x="480" y="672" width="540" height="66"/>
  <text class="lbl" x="750" y="696">WorkingContext[]</text>
  <text class="path" x="750" y="712">retrieval_models.py:1832 — key, title, kind, state, buckets, anchor_concept_id, member_concept_ids</text>
  <line class="arrow" x1="750" y1="638" x2="750" y2="670"/>

  <!-- consumers -->
  <text class="containerLbl" x="750" y="770" text-anchor="middle">consumers</text>

  <rect class="box" x="130" y="792" width="380" height="98"/>
  <text class="lblSm" x="320" y="816">query_structured()</text>
  <text class="path" x="320" y="832">StructuredPromptBuilder</text>
  <text class="path" x="320" y="846">structured_prompt_builder.py</text>
  <text class="noteG" x="320" y="864">→ XML prompt: &lt;WorkingContext&gt;,</text>
  <text class="noteG" x="320" y="877">optional &lt;ProjectState&gt; for CONTINUATION queries</text>

  <rect class="box" x="560" y="792" width="380" height="98"/>
  <text class="lblSm" x="750" y="816">POST /api/v1/retrieve_working_context</text>
  <text class="path" x="750" y="832">obsidian/server/main.py:2099</text>
  <text class="noteG" x="750" y="854">→ extension controller.js:548</text>
  <text class="noteG" x="750" y="867">showWorkingContextDialog()</text>

  <rect class="box" x="990" y="792" width="380" height="98"/>
  <text class="lblSm" x="1180" y="816">save_memory() incremental path</text>
  <text class="path" x="1180" y="832">main.py: _lookup_working_context()</text>
  <text class="noteG" x="1180" y="854">passed as existing_context (background</text>
  <text class="noteG" x="1180" y="867">only) to Extractor._render_existing_context()</text>
  <text class="noteG" x="1180" y="880">extractor.py:457, fail-open, best-effort</text>

  <line class="arrow" x1="620" y1="738" x2="380" y2="790"/>
  <line class="arrow" x1="750" y1="738" x2="750" y2="790"/>
  <line class="arrowDashed" x1="880" y1="738" x2="1130" y2="790"/>

  <rect class="callout" x="200" y="918" width="1100" height="52"/>
  <text class="noteG" x="750" y="948">Never re-extracted as new facts: the write pipeline's Extractor is instructed to treat existing_context strictly as background, not extractable evidence.</text>

  <!-- legend -->
  <rect class="callout" x="1130" y="78" width="290" height="86"/>
  <text class="legendTitle" x="1145" y="98">Legend</text>
  <line x1="1145" y1="112" x2="1175" y2="112" class="arrow"/>
  <text class="legendTxt" x="1182" y="116">deterministic call / required sequence</text>
  <line x1="1145" y1="129" x2="1175" y2="129" class="arrowDashed"/>
  <text class="legendTxt" x="1182" y="133">optional / best-effort, fail-open</text>
  <circle cx="1160" cy="150" r="8" fill="#1a1a1a"/>
  <text class="legendTxt" x="1182" y="154">ordered builder step</text>
</svg>
